<?xml version="1.0" standalone="no"?><!DOCTYPE svg PUBLIC "-//W3C//DTD SVG 1.1//EN" "http://www.w3.org/Graphics/SVG/1.1/DTD/svg11.dtd"><svg t="1586079715141" class="icon" viewBox="0 0 1024 1024" version="1.1" xmlns="http://www.w3.org/2000/svg" p-id="1831" xmlns:xlink="http://www.w3.org/1999/xlink" width="200" height="200"><defs><style type="text/css"></style></defs><path d="M512 278.26087c129.113043 0 233.73913 104.626087 233.73913 233.73913S641.113043 745.73913 512 745.73913 278.26087 641.113043 278.26087 512 382.886957 278.26087 512 278.26087m0-44.52174c-153.6 0-278.26087 124.66087-278.26087 278.26087S358.4 790.26087 512 790.26087 790.26087 665.6 790.26087 512 665.6 233.73913 512 233.73913zM133.565217 496.417391H22.26087c-13.356522 0-22.26087-8.904348-22.26087-22.260869s8.904348-22.26087 22.26087-22.26087h111.304347c13.356522 0 22.26087 8.904348 22.26087 22.26087s-8.904348 22.26087-22.26087 22.260869zM1001.73913 496.417391h-111.304347c-13.356522 0-22.26087-8.904348-22.26087-22.260869s8.904348-22.26087 22.26087-22.26087h111.304347c13.356522 0 22.26087 8.904348 22.26087 22.26087s-11.130435 22.26087-22.26087 22.260869zM518.678261 158.052174c-13.356522 0-22.26087-8.904348-22.26087-22.26087v-111.304347c0-13.356522 8.904348-22.26087 22.26087-22.26087s22.26087 8.904348 22.260869 22.26087v111.304347c0 11.130435-11.130435 22.26087-22.260869 22.26087zM229.286957 260.452174c-6.678261 0-11.130435-2.226087-15.582609-6.678261L138.017391 171.408696c-8.904348-8.904348-8.904348-22.26087 2.226087-31.165218 8.904348-8.904348 22.26087-8.904348 31.165218 2.226087L244.869565 222.608696c8.904348 8.904348 8.904348 22.26087-2.226087 31.165217-2.226087 4.452174-8.904348 6.678261-13.356521 6.678261zM785.808696 256c-6.678261 0-11.130435-2.226087-15.582609-6.678261-8.904348-8.904348-6.678261-22.26087 2.226087-31.165217l82.365217-75.686957c8.904348-8.904348 22.26087-8.904348 31.165218 2.226087 8.904348 8.904348 6.678261 22.26087-2.226087 31.165218L801.391304 251.547826c-4.452174 2.226087-8.904348 4.452174-15.582608 4.452174zM734.608696 910.469565H289.391304c-13.356522 0-22.26087-8.904348-22.260869-22.260869s8.904348-22.26087 22.260869-22.26087h445.217392c13.356522 0 22.26087 8.904348 22.260869 22.26087s-8.904348 22.26087-22.260869 22.260869zM623.304348 1024H400.695652c-13.356522 0-22.26087-8.904348-22.260869-22.26087s8.904348-22.26087 22.260869-22.260869h222.608696c13.356522 0 22.26087 8.904348 22.260869 22.260869s-8.904348 22.26087-22.260869 22.26087z" p-id="1832" fill="#1296db"></path><path d="M516.452174 558.747826h-95.721739L396.243478 623.304348h-28.93913l82.365217-215.930435h37.843478l82.365218 215.930435h-28.939131l-24.486956-64.556522z m-8.904348-24.486956l-35.617391-100.173913H467.478261L429.634783 534.26087h77.913043zM616.626087 407.373913H645.565217V623.304348h-28.93913v-215.930435z" p-id="1833" fill="#1296db"></path></svg>